HIERARCHY
ROOT hip
{
	OFFSET 0.000000 0.000000 0.000000
	CHANNELS 6 Xposition Yposition Zposition Xrotation Zrotation Yrotation 
	JOINT abdomen
	{
		OFFSET 0.000000 3.422050 0.000000
		CHANNELS 3 Xrotation Zrotation Yrotation 
		JOINT chest
		{
			OFFSET 0.000000 8.486693 -0.684411
			CHANNELS 3 Xrotation Zrotation Yrotation 
			JOINT neck
			{
				OFFSET 0.000000 10.266162 -0.273764
				CHANNELS 3 Xrotation Zrotation Yrotation 
				JOINT head
				{
					OFFSET 0.000000 3.148285 0.000000
					CHANNELS 3 Xrotation Zrotation Yrotation 
					End Site
					{
						OFFSET 0.000000 3.148289 0.000000
					}
				}
			}
			JOINT lCollar
			{
				OFFSET 3.422053 6.707223 -0.821293
				CHANNELS 3 Yrotation Zrotation Xrotation 
				JOINT lShldr
				{
					OFFSET 3.285171 0.000000 0.000000
					CHANNELS 3 Zrotation Yrotation Xrotation 
					JOINT lForeArm
					{
						OFFSET 10.129278 0.000000 0.000000
						CHANNELS 3 Yrotation Zrotation Xrotation 
						JOINT lHand
						{
							OFFSET 8.486692 0.000000 0.000000
							CHANNELS 3 Zrotation Yrotation Xrotation 
							End Site
							{
								OFFSET 4.106464 0.000000 0.000000
							}
						}
					}
				}
			}
			JOINT rCollar
			{
				OFFSET -3.558935 6.707223 -0.821293
				CHANNELS 3 Yrotation Zrotation Xrotation 
				JOINT rShldr
				{
					OFFSET -3.148289 0.000000 0.000000
					CHANNELS 3 Zrotation Yrotation Xrotation 
					JOINT rForeArm
					{
						OFFSET -10.266159 0.000000 0.000000
						CHANNELS 3 Yrotation Zrotation Xrotation 
						JOINT rHand
						{
							OFFSET -8.349810 0.000000 0.000000
							CHANNELS 3 Zrotation Yrotation Xrotation 
							End Site
							{
								OFFSET -4.106464 0.000000 0.000000
							}
						}
					}
				}
			}
		}
	}
	JOINT lThigh
	{
		OFFSET 5.338403 -1.642589 1.368821
		CHANNELS 3 Xrotation Zrotation Yrotation 
		JOINT lShin
		{
			OFFSET -2.053232 -20.121670 0.000000
			CHANNELS 3 Xrotation Zrotation Yrotation 
			JOINT lFoot
			{
				OFFSET 0.000000 -19.300380 -1.231939
				CHANNELS 3 Xrotation Yrotation Zrotation 
				End Site
				{
					OFFSET 0.000000 -2.463878 4.653993
				}
			}
		}
	}
	JOINT rThigh
	{
		OFFSET -5.338403 -1.642589 1.368821
		CHANNELS 3 Xrotation Zrotation Yrotation 
		JOINT rShin
		{
			OFFSET 2.053232 -20.121670 0.000000
			CHANNELS 3 Xrotation Zrotation Yrotation 
			JOINT rFoot
			{
				OFFSET 0.000000 -19.300380 -1.231939
				CHANNELS 3 Xrotation Yrotation Zrotation 
				End Site
				{
					OFFSET 0.000000 -2.463878 4.653993
				}
			}
		}
	}
}
MOTION
Frames: 10
Frame Time: 0.033264
0.000000 5.996777 35.999802 -94.004440 0.000000 0.000000 3.104506 0.000000 0.000000 1.059391 -0.001357 -0.451125 14.600479 0.000000 0.000000 -4.025625 0.000000 0.000000 -0.991090 0.186680 -12.690951 -81.674713 -2.492568 0.194818 -45.013309 3.343621 0.469172 -19.205492 14.024112 -7.210712 -3.798309 -2.265000 -4.719136 86.120911 0.462144 1.059252 67.289680 4.717586 -0.208916 14.737633 -6.949516 -3.187342 -82.922485 28.818846 33.029411 111.798752 -25.523586 -5.589197 19.118288 -14.579430 11.924317 -86.341194 -31.157982 -31.819300 121.106712 19.588453 9.407021 19.116936 14.597339 -11.948896 
0.000000 5.996777 35.999802 -94.004440 0.000000 0.000000 2.552845 0.000000 0.000000 1.560585 -0.001402 -0.451141 15.202625 0.000000 0.000000 -3.549610 0.000000 0.000000 -1.291708 -0.162327 -12.870975 -81.293015 -2.609503 0.143714 -44.727245 3.484840 0.447712 -19.205492 14.024112 -7.210712 -3.646276 -2.151960 -4.943054 86.001053 0.615304 1.040277 66.915749 4.647354 -0.197270 14.737633 -6.949516 -3.187342 -82.656616 28.827187 33.136810 111.470901 -25.710161 -5.441141 19.118288 -14.579430 11.924317 -86.247849 -31.278490 -31.866423 120.750557 19.658796 9.294420 19.116936 14.597339 -11.948896 
0.000000 5.996777 35.999802 -94.004440 0.000000 0.000000 2.001235 0.000000 0.000000 2.061742 -0.001447 -0.451158 15.804698 0.000000 0.000000 -3.073628 0.000000 0.000000 -1.593410 -0.510358 -13.052822 -80.911186 -2.726089 0.091829 -44.441082 3.625943 0.425544 -19.205492 14.024112 -7.210712 -3.493818 -2.039518 -5.167247 85.881134 0.768422 1.020982 66.541885 4.577053 -0.186084 14.737633 -6.949516 -3.187342 -82.390694 28.835089 33.244251 111.142044 -25.895975 -5.291672 19.118288 -14.579430 11.924317 -86.154289 -31.398939 -31.913841 120.394119 19.728477 9.181312 19.116936 14.597339 -11.948896 
0.000000 5.996777 35.999802 -94.004440 0.000000 0.000000 1.449702 0.000000 0.000000 2.562840 -0.001491 -0.451175 16.406679 0.000000 0.000000 -2.597694 0.000000 0.000000 -1.896203 -0.857387 -13.236493 -80.529259 -2.842319 0.039166 -44.154823 3.766928 0.402666 -19.205492 14.024112 -7.210712 -3.340937 -1.927678 -5.391717 85.761154 0.921497 1.001365 66.168114 4.506684 -0.175361 14.737633 -6.949516 -3.187342 -82.124741 28.842546 33.351738 110.812134 -26.080994 -5.140792 19.118288 -14.579430 11.924317 -86.060486 -31.519321 -31.961550 120.037376 19.797485 9.067698 19.116936 14.597339 -11.948896 
0.000000 5.996777 35.999802 -94.004440 0.000000 0.000000 0.898272 0.000000 0.000000 3.063863 -0.001536 -0.451193 17.008528 0.000000 0.000000 -2.121828 0.000000 0.000000 -2.200094 -1.203385 -13.421986 -80.147217 -2.958184 -0.014273 -43.868496 3.907789 0.379081 -19.205492 14.024112 -7.210712 -3.187636 -1.816442 -5.616456 85.641106 1.074526 0.981428 65.794403 4.436253 -0.165100 14.737633 -6.949516 -3.187342 -81.858788 28.849579 33.459278 110.481178 -26.265213 -4.988497 19.118288 -14.579430 11.924317 -85.966438 -31.639622 -32.009537 119.680389 19.865833 8.953595 19.116936 14.597339 -11.948896 
0.000000 5.996777 35.999802 -94.004440 0.000000 0.000000 0.346969 0.000000 0.000000 3.564788 -0.001580 -0.451210 17.610199 0.000000 0.000000 -1.646043 0.000000 0.000000 -2.505091 -1.548329 -13.609305 -79.765053 -3.073675 -0.068482 -43.582077 4.048520 0.354789 -19.205492 14.024112 -7.210712 -3.033921 -1.705818 -5.841465 85.521019 1.227509 0.961169 65.420799 4.365767 -0.155302 14.737633 -6.949516 -3.187342 -81.592796 28.856176 33.566860 110.149193 -26.448622 -4.834790 19.118288 -14.579430 11.924317 -85.872162 -31.759869 -32.057835 119.323120 19.933489 8.838997 19.116936 14.597339 -11.948896 
0.000000 5.996777 35.999802 -94.004440 0.000000 0.000000 -0.204182 0.000000 0.000000 4.065600 -0.001625 -0.451229 18.211685 0.000000 0.000000 -1.170356 0.000000 0.000000 -2.811203 -1.892193 -13.798450 -79.382813 -3.188788 -0.123460 -43.295567 4.189114 0.329789 -19.205492 14.024112 -7.210712 -2.879793 -1.595806 -6.066739 85.400879 1.380445 0.940590 65.047272 4.295226 -0.145968 14.737633 -6.949516 -3.187342 -81.326775 28.862320 33.674461 109.816162 -26.631214 -4.679671 19.118288 -14.579430 11.924317 -85.777649 -31.880045 -32.106426 118.965599 20.000477 8.723919 19.116936 14.597339 -11.948896 
0.000000 5.996777 35.999802 -94.004440 0.000000 0.000000 -0.755152 0.000000 0.000000 4.566277 -0.001669 -0.451247 18.812927 0.000000 0.000000 -0.694785 0.000000 0.000000 -3.118433 -2.234951 -13.989420 -79.000481 -3.303511 -0.179202 -43.008991 4.329567 0.304083 -19.205492 14.024112 -7.210712 -2.725256 -1.486413 -6.292275 85.280670 1.533330 0.919689 64.673851 4.224637 -0.137097 14.737633 -6.949516 -3.187342 -81.060776 28.868040 33.782104 109.482071 -26.812963 -4.523132 19.118288 -14.579430 11.924317 -85.682869 -32.000134 -32.155296 118.607811 20.066772 8.608362 19.116936 14.597339 -11.948896 
0.000000 5.996777 35.999802 -94.004440 0.000000 0.000000 -1.305920 0.000000 0.000000 5.066802 -0.001713 -0.451266 19.413916 0.000000 0.000000 -0.219344 0.000000 0.000000 -3.426791 -2.576577 -14.182218 -78.618065 -3.417838 -0.235706 -42.722313 4.469872 0.277671 -19.205492 14.024112 -7.210712 -2.570313 -1.377639 -6.518071 85.160416 1.686164 0.898467 64.300560 4.154004 -0.128690 14.737633 -6.949516 -3.187342 -80.794746 28.873314 33.889771 109.146980 -26.993874 -4.365184 19.118288 -14.579430 11.924317 -85.587868 -32.120167 -32.204483 118.249809 20.132383 8.492338 19.116936 14.597339 -11.948896 
0.000000 5.996777 35.999802 -94.004440 0.000000 0.000000 -1.856457 0.000000 0.000000 5.567153 -0.001756 -0.451285 20.014597 0.000000 0.000000 0.255949 0.000000 0.000000 -3.736282 -2.917045 -14.376843 -78.235558 -3.531760 -0.292966 -42.435558 4.610025 0.250554 -19.205492 14.024112 -7.210712 -2.414968 -1.269491 -6.744123 85.040100 1.838945 0.876923 63.927376 4.083332 -0.120746 14.737633 -6.949516 -3.187342 -80.528709 28.878157 33.997463 108.810814 -27.173922 -4.205821 19.118288 -14.579430 11.924317 -85.492599 -32.240116 -32.253960 117.891563 20.197300 8.375848 19.116936 14.597339 -11.948896 
